<!-- Usage: green Pomodoro version icon; embed with <img src="assets/green-leaf.svg" alt="">. -->
<svg xmlns="http://www.w3.org/2000/svg" viewBox="0 0 320 320" role="img" aria-labelledby="title desc">
  <title id="title">Green focus leaf</title>
  <desc id="desc">A friendly green leaf timer mascot for the green Pomodoro version.</desc>
  <defs>
    <linearGradient id="leafBody" x1="80" y1="56" x2="238" y2="258" gradientUnits="userSpaceOnUse">
      <stop offset="0" stop-color="#b7f2a8" />
      <stop offset="0.46" stop-color="#42b96d" />
      <stop offset="1" stop-color="#0f6b3b" />
    </linearGradient>
    <linearGradient id="stem" x1="131" y1="40" x2="187" y2="134" gradientUnits="userSpaceOnUse">
      <stop offset="0" stop-color="#e7ffe0" />
      <stop offset="1" stop-color="#258a4f" />
    </linearGradient>
    <filter id="shadow" x="-18%" y="-18%" width="136%" height="148%">
      <feDropShadow dx="0" dy="14" stdDeviation="11" flood-color="#0f3d27" flood-opacity="0.22" />
    </filter>
  </defs>
  <g filter="url(#shadow)">
    <ellipse cx="160" cy="278" rx="76" ry="14" fill="#8fcf9f" opacity="0.25" />
    <path d="M91 174c0-62 41-105 102-111 17 62-14 138-76 153-17 4-26-11-26-42Z" fill="url(#leafBody)" />
    <path d="M199 75c34 18 55 49 55 90 0 59-41 100-94 100S66 224 66 165c0-15 3-29 9-42 34 13 76 0 124-48Z" fill="#67cf7c" />
    <path d="M199 75c34 18 55 49 55 90 0 59-41 100-94 100S66 224 66 165c0-15 3-29 9-42 34 13 76 0 124-48Z" fill="url(#leafBody)" opacity="0.86" />
    <path d="M101 211c42-31 73-72 93-125" fill="none" stroke="#e8ffe7" stroke-linecap="round" stroke-width="9" opacity="0.68" />
    <path d="M151 57c-3-25 11-43 41-50 10 30 0 51-31 63Z" fill="url(#stem)" />
    <path d="M119 146c11-7 21-7 31 0" fill="none" stroke="#0a3e29" stroke-linecap="round" stroke-width="8" />
    <path d="M171 146c11-7 21-7 31 0" fill="none" stroke="#0a3e29" stroke-linecap="round" stroke-width="8" />
    <circle cx="135" cy="165" r="7" fill="#083624" />
    <circle cx="187" cy="165" r="7" fill="#083624" />
    <path d="M143 191c11 12 25 12 36 0" fill="none" stroke="#08402a" stroke-linecap="round" stroke-width="8" />
    <path d="M56 184c-22-8-34-25-36-51 31-1 51 12 60 39Z" fill="#53bd68" />
    <path d="M264 184c22-8 34-25 36-51-31-1-51 12-60 39Z" fill="#53bd68" />
  </g>
</svg>
