<!-- Usage: pineapple focus icon; embed with <img src="assets/pineapple.svg" alt="">. -->
<svg xmlns="http://www.w3.org/2000/svg" viewBox="0 0 160 160" role="img" aria-labelledby="title desc">
  <title id="title">Pineapple</title>
  <desc id="desc">A bright pineapple icon with green leaves and golden fruit.</desc>
  <defs>
    <linearGradient id="fruit" x1="46" y1="48" x2="116" y2="142" gradientUnits="userSpaceOnUse">
      <stop offset="0" stop-color="#ffd45a"/>
      <stop offset="0.52" stop-color="#f2a922"/>
      <stop offset="1" stop-color="#d88715"/>
    </linearGradient>
    <linearGradient id="leaf" x1="44" y1="10" x2="106" y2="72" gradientUnits="userSpaceOnUse">
      <stop stop-color="#85c95a"/>
      <stop offset="1" stop-color="#276f3a"/>
    </linearGradient>
    <filter id="shadow" x="-20%" y="-20%" width="140%" height="148%">
      <feDropShadow dx="0" dy="8" stdDeviation="5" flood-color="#8b5a12" flood-opacity="0.24"/>
    </filter>
  </defs>
  <g filter="url(#shadow)">
    <path d="M79 42c-22 0-39 22-39 51 0 35 17 54 40 54s40-19 40-54c0-29-18-51-41-51Z" fill="url(#fruit)"/>
    <path d="M79 43c-12-16-27-23-45-20 11 7 18 15 20 25-12-7-25-9-39-4 14 6 24 13 29 22 12-12 24-19 35-23Z" fill="url(#leaf)"/>
    <path d="M82 43c0-17 7-30 22-39 5 17 2 31-10 42 12-10 25-13 40-10-7 13-19 22-35 26 7-1 16 2 27 8-16 7-31 6-46-2-13 7-27 8-43 3 11-8 21-11 30-9-14-6-22-16-26-31 15 2 28 8 41 18Z" fill="url(#leaf)"/>
    <path d="M55 68h52M48 92h64M54 118h52" stroke="#ffe59a" stroke-width="4" stroke-linecap="round" opacity=".82"/>
    <path d="M58 62l48 70M82 54l38 60M47 84l36 52M104 62l-48 70M80 54l-38 60M116 84l-36 52" stroke="#b97716" stroke-width="3" stroke-linecap="round" opacity=".38"/>
    <circle cx="67" cy="84" r="4" fill="#fff1a6" opacity=".75"/>
    <circle cx="88" cy="105" r="4" fill="#fff1a6" opacity=".65"/>
  </g>
</svg>
